# xmcd
#
# Track frame offsets: 
#        150
#        9170
#        23090
#        35650
#        45955
#        59245
#        71142
#        83205
#        96085
#        111110
#        123027
#        136190
#        150527
#        164802
#        179555
#        194037
#        208157
#        222185
#        238582
#        253590
#        268345
#        282387
#        295320
#        307687
#        321102
#        334867
#
# Disc length: 4645 seconds
#
# Revision: 2
# Processed by: cddbd v1.5.2PL0 Copyright (c) Steve Scherf et al.
# Submitted via: ExactAudioCopyFreeDBPlugin 1.0
#
DISCID=8812231a
DTITLE=Various Artist - Too Late, Too Late,  Vol. 2 (1897-1935)
DYEAR=1900
DGENRE=
TTITLE0=Cousins and De Moss - Poor Mourner
TTITLE1=Jim Jackson - Jim Jackson's Affinity
TTITLE2=unknown - Turkey in the Straw
TTITLE3=unknown quartet - Way Down Yonder in the Cornfield
TTITLE4=Blind Blake - West Coast Blues
TTITLE5=Blind Blake - Come On Boys Let's Do That Messin' Around
TTITLE6=Booker Orchestra - Salty Dog
TTITLE7=Brantley and Williams - Big Fat Mamma
TTITLE8=Rev. Moses Mason - John the Baptist
TTITLE9=Rev. Moses Mason - Go Wash in the Beautiful Stream
TTITLE10=Ma Rainey - Traveling Blues
TTITLE11=Charley Patton - Lord I'm Discouraged
TTITLE12=Charley Patton - I'm Goin' Home
TTITLE13=Gene Campbell - "Toby" Woman Blues
TTITLE14=Gene Campbell - Turned Out Blues
TTITLE15=Lonnie Johnson - Jelly Killed Old Sam
TTITLE16=Lonnie Johnson - The Faults of All Women and Men
TTITLE17=Kansas Joe - I'm Going Crazy
TTITLE18=Kansas Joe - Dresser Drawer Blues
TTITLE19=Ramblin' Thomas - Ground Hog Blues No. 2
TTITLE20=Ramblin' Thomas - Little Old Mamma Blues
TTITLE21=Joshua White - Broad Players Blues
TTITLE22=Joshua White - Big House Blues
TTITLE23=Bo Carter - Backache Blues
TTITLE24=Bo Carter - Nobody Knows My Baby
TTITLE25=Kokomo Arnold - Policy Wheel Blues
EXTD=
EXTT0=
EXTT1=
EXTT2=
EXTT3=
EXTT4=
EXTT5=
EXTT6=
EXTT7=
EXTT8=
EXTT9=
EXTT10=
EXTT11=
EXTT12=
EXTT13=
EXTT14=
EXTT15=
EXTT16=
EXTT17=
EXTT18=
EXTT19=
EXTT20=
EXTT21=
EXTT22=
EXTT23=
EXTT24=
EXTT25=
PLAYORDER=
